***************************** TPB IS BENEDICTION TO ME ****************************


Screen Link :---

 
http://www.shotpix.com/images/75688814374153303688.jpg


General Info :---

Format                           : Matroska
File size                        : 305 MiB
Duration                         : 1h 28mn
Overall bit rate                 : 484 Kbps
Movie name                       : P
Encoded date                     : UTC 2011-06-13 00:43:54
Writing application              : mkvmerge v4.6.0 ('Still Crazy After All These Years') built on Mar 10 2011 02:50:32
Writing library                  : libebml v1.2.0 + libmatroska v1.1.0

Video
ID                               : 1
Format                           : AVC
Format/Info                      : Advanced Video Codec
Format profile                   : High@L4.0
Format settings, CABAC           : Yes
Format settings, ReFrames        : 3 frames
Format settings, GOP             : M=3, N=4
Codec ID                         : V_MPEG4/ISO/AVC
Duration                         : 1h 28mn
Bit rate mode                    : Variable
Bit rate                         : 369 Kbps
Maximum bit rate                 : 25.0 Mbps
Width                            : 608 pixels
Height                           : 336 pixels
Display aspect ratio             : 16:9
Frame rate                       : 23.976 fps
Color space                      : YUV
Chroma subsampling               : 4:2:0
Bit depth                        : 8 bits
Scan type                        : Progressive
Bits/(Pixel*Frame)               : 0.075
Stream size                      : 227 MiB (74%)

Audio
ID                               : 2
Format                           : MPEG Audio
Format version                   : Version 1
Format profile                   : Layer 3
Mode                             : Joint stereo
Mode extension                   : MS Stereo
Codec ID                         : A_MPEG/L3
Codec ID/Hint                    : MP3
Duration                         : 1h 28mn
Bit rate mode                    : Variable
Bit rate                         : 114 Kbps
Nominal bit rate                 : 128 Kbps
Channel(s)                       : 2 channels
Sampling rate                    : 48.0 KHz
Compression mode                 : Lossy
Stream size                      : 72.0 MiB (24%)




***************************** TPB IS BENEDICTION TO ME ****************************




